:FULLY-SPECIFIED
:FORCE-ALL-JOINTS-BE-3DOF
:DEGREES
577
root 6.98712 16.3896 -3.57417 -166.495 76.5326 -173.481
lfemur -16.8476 -3.52001 -19.4151
ltibia 44.2389 0 0
lfoot -32.2655 10.7301 0
ltoes 7.69727 0 0
rfemur -52.4525 -13.0177 14.2442
rtibia 48.9949 0 0
rfoot 10.6824 4.99049 0
rtoes -29.7032 0 0
lowerback 6.62038 -0.673828 -2.27191
upperback 2.35489 -0.886691 3.39449
thorax -1.18905 -0.420743 4.85999
lowerneck -5.44826 -13.4557 -3.98135
upperneck 10.5383 -18.2315 5.09303
head 4.88964 -8.81052 1.00282
lclavicle 7.22543e-15 -1.99073e-16 0
lhumerus -39.7301 -17.7698 92.5661
lradius 55.103 0 0
lwrist 22.9541 0 0
lhand -21.1102 -3.81646 0
lfingers 7.12502 0 0
lthumb 5.26793 26.0983 0
rclavicle 7.22543e-15 -1.99073e-16 0
rhumerus 28.6266 15.3118 -73.7734
rradius 133.923 0 0
rwrist -45.7915 0 0
rhand -25.7569 -21.2866 0
rfingers 7.12502 0 0
rthumb 0.78047 -771.264 0
578
root 6.92829 16.4031 -3.567 -165.998 77.3906 -172.935
lfemur -16.7223 -3.5654 -19.4936
ltibia 43.8626 0 0
lfoot -32.1873 11.1352 0
ltoes 8.46343 0 0
rfemur -52.7768 -13.402 14.4118
rtibia 51.2191 0 0
rfoot 11.5381 5.61417 0
rtoes -28.3151 0 0
lowerback 6.41797 -0.660703 -2.36054
upperback 2.29924 -0.881995 3.26647
thorax -1.1357 -0.421344 4.7732
lowerneck -5.52513 -13.4214 -3.91181
upperneck 10.7732 -18.1991 5.06262
head 4.96458 -8.78515 0.973216
lclavicle 9.28486e-15 4.95774e-15 0
lhumerus -38.6864 -18.5008 91.7119
lradius 54.8725 0 0
lwrist 23.4106 0 0
lhand -21.026 -3.48813 0
lfingers 7.12502 0 0
lthumb 5.34921 26.4247 0
rclavicle 9.28486e-15 4.95774e-15 0
rhumerus 28.5431 15.2804 -73.7531
rradius 133.931 0 0
rwrist -45.8242 0 0
rhand -25.6096 -21.0972 0
rfingers 7.12502 0 0
rthumb 0.922819 -771.074 0
579
root 6.87082 16.4112 -3.55828 -165.392 78.2062 -172.263
lfemur -16.6459 -3.46816 -19.5494
ltibia 43.6151 0 0
lfoot -32.1568 11.4309 0
ltoes 9.07293 0 0
rfemur -53.01 -13.7192 14.5015
rtibia 53.4102 0 0
rfoot 12.4619 6.35777 0
rtoes -26.897 0 0
lowerback 6.21481 -0.650477 -2.45749
upperback 2.24986 -0.880779 3.13765
thorax -1.0748 -0.423767 4.69043
lowerneck -5.58614 -13.3921 -3.84441
upperneck 11.0128 -18.1752 5.04455
head 5.04025 -8.76338 0.947727
lclavicle 1.17848e-14 9.90446e-15 0
lhumerus -37.5886 -19.2326 90.8614
lradius 54.6145 0 0
lwrist 23.8757 0 0
lhand -20.9482 -3.16491 0
lfingers 7.12502 0 0
lthumb 5.42436 26.746 0
rclavicle 1.17848e-14 9.90446e-15 0
rhumerus 28.3918 15.283 -73.75
rradius 133.942 0 0
rwrist -45.824 0 0
rhand -25.4693 -20.8913 0
rfingers 7.12502 0 0
rthumb 1.0583 -770.868 0
580
root 6.81472 16.4159 -3.54826 -164.551 78.9921 -171.34
lfemur -16.6026 -3.22505 -19.5826
ltibia 43.4619 0 0
lfoot -32.149 11.6549 0
ltoes 9.48297 0 0
rfemur -53.121 -13.9658 14.5501
rtibia 55.424 0 0
rfoot 13.3234 7.10729 0
rtoes -25.5206 0 0
lowerback 6.01816 -0.646637 -2.5711
upperback 2.20681 -0.887974 3.01396
thorax -1.00943 -0.43052 4.62297
lowerneck -5.63279 -13.3663 -3.78424
upperneck 11.2429 -18.1574 5.04493
head 5.11338 -8.74431 0.929359
lclavicle 1.42421e-14 1.42408e-14 0
lhumerus -36.4635 -19.9572 90.0416
lradius 54.3534 0 0
lwrist 24.307 0 0
lhand -20.8695 -2.86587 0
lfingers 7.12502 0 0
lthumb 5.5003 27.043 0
rclavicle 1.42421e-14 1.42408e-14 0
rhumerus 28.1957 15.3144 -73.7478
rradius 133.953 0 0
rwrist -45.7925 0 0
rhand -25.3475 -20.6808 0
rfingers 7.12502 0 0
rthumb 1.17597 -770.657 0
581
root 6.76 16.4188 -3.53714 -163.348 79.7614 -170.042
lfemur -16.5773 -2.83284 -19.5935
ltibia 43.3683 0 0
lfoot -32.1391 11.8449 0
ltoes 9.65077 0 0
rfemur -53.0788 -14.1381 14.5937
rtibia 57.1161 0 0
rfoot 13.9923 7.74873 0
rtoes -24.2579 0 0
lowerback 5.8353 -0.652673 -2.70966
upperback 2.17016 -0.90851 2.90132
thorax -0.942642 -0.444107 4.58209
lowerneck -5.66653 -13.3423 -3.73644
upperneck 11.4494 -18.1436 5.06986
head 5.18068 -8.72706 0.921119
lclavicle 1.61734e-14 1.75664e-14 0
lhumerus -35.3384 -20.6665 89.2798
lradius 54.1136 0 0
lwrist 24.6619 0 0
lhand -20.7829 -2.61003 0
lfingers 7.12502 0 0
lthumb 5.58393 27.2965 0
rclavicle 1.61734e-14 1.75664e-14 0
rhumerus 27.9778 15.3694 -73.73
rradius 133.962 0 0
rwrist -45.7312 0 0
rhand -25.2554 -20.4776 0
rfingers 7.12502 0 0
rthumb 1.26489 -770.453 0
582
root 6.70668 16.4219 -3.52517 -161.655 80.5267 -168.243
lfemur -16.5543 -2.28828 -19.5821
ltibia 43.2999 0 0
lfoot -32.1021 12.0386 0
ltoes 9.53351 0 0
rfemur -52.8524 -14.2324 14.669
rtibia 58.3423 0 0
rfoot 14.3379 8.16808 0
rtoes -23.1809 0 0
lowerback 5.67349 -0.672073 -2.8815
upperback 2.13999 -0.947316 2.80564
thorax -0.877532 -0.467035 4.57908
lowerneck -5.68886 -13.3185 -3.70611
upperneck 11.6179 -18.1314 5.12545
head 5.23887 -8.71073 0.926016
lclavicle 1.70955e-14 1.94809e-14 0
lhumerus -34.2402 -21.3527 88.6031
lradius 53.9197 0 0
lwrist 24.8981 0 0
lhand -20.6812 -2.41646 0
lfingers 7.12502 0 0
lthumb 5.68214 27.4874 0
rclavicle 1.70955e-14 1.94809e-14 0
rhumerus 27.7608 15.4426 -73.6802
rradius 133.969 0 0
rwrist -45.6418 0 0
rhand -25.2045 -20.2936 0
rfingers 7.12502 0 0
rthumb 1.3141 -770.269 0
583
root 6.65523 16.4231 -3.51078 -160.263 81.3477 -166.714
lfemur -16.5433 -1.55682 -19.5295
ltibia 43.3075 0 0
lfoot -32.0502 12.1978 0
ltoes 8.99979 0 0
rfemur -52.3646 -14.2243 14.7307
rtibia 59.1118 0 0
rfoot 14.3696 8.32685 0
rtoes -22.1949 0 0
lowerback 5.53965 -0.707224 -3.09511
upperback 2.12302 -1.00802 2.73291
thorax -0.810374 -0.501296 4.62546
lowerneck -5.68952 -13.3009 -3.69956
upperneck 11.7392 -18.1289 5.22232
head 5.28534 -8.69941 0.948232
lclavicle 1.69882e-14 1.96958e-14 0
lhumerus -33.1189 -22.0215 87.9926
lradius 53.7566 0 0
lwrist 24.9969 0 0
lhand -20.5706 -2.29189 0
lfingers 7.12502 0 0
lthumb 5.78894 27.6091 0
rclavicle 1.69882e-14 1.96958e-14 0
rhumerus 27.5211 15.5725 -73.5888
rradius 133.986 0 0
rwrist -45.4671 0 0
rhand -25.1862 -20.0987 0
rfingers 7.12502 0 0
rthumb 1.33178 -770.074 0
